<?xml version="1.0" encoding="UTF-8" standalone="no"?>
<!-- Created with Inkscape (http://www.inkscape.org/) -->

<svg
   xmlns:dc="http://purl.org/dc/elements/1.1/"
   xmlns:cc="http://creativecommons.org/ns#"
   xmlns:rdf="http://www.w3.org/1999/02/22-rdf-syntax-ns#"
   xmlns:svg="http://www.w3.org/2000/svg"
   xmlns="http://www.w3.org/2000/svg"
   xmlns:sodipodi="http://sodipodi.sourceforge.net/DTD/sodipodi-0.dtd"
   xmlns:inkscape="http://www.inkscape.org/namespaces/inkscape"
   id="svg2"
   version="1.1"
   inkscape:version="0.91 r13725"
   xml:space="preserve"
   width="352.5"
   height="352.5"
   viewBox="0 0 352.5 352.5"
   sodipodi:docname="vimlogo.svg"><metadata
     id="metadata8"><rdf:RDF><cc:Work
         rdf:about=""><dc:format>image/svg+xml</dc:format><dc:type
           rdf:resource="http://purl.org/dc/dcmitype/StillImage" /><dc:title></dc:title></cc:Work></rdf:RDF></metadata><defs
     id="defs6" /><sodipodi:namedview
     pagecolor="#ffffff"
     bordercolor="#666666"
     borderopacity="1"
     objecttolerance="10"
     gridtolerance="10"
     guidetolerance="10"
     inkscape:pageopacity="0"
     inkscape:pageshadow="2"
     inkscape:window-width="640"
     inkscape:window-height="480"
     id="namedview4"
     showgrid="false"
     inkscape:zoom="0.66950355"
     inkscape:cx="176.25"
     inkscape:cy="176.25"
     inkscape:window-x="0"
     inkscape:window-y="24"
     inkscape:window-maximized="0"
     inkscape:current-layer="g10" /><g
     id="g10"
     inkscape:groupmode="layer"
     inkscape:label="ink_ext_XXXXXX"
     transform="matrix(1.25,0,0,-1.25,0,352.5)"><g
       id="g12"
       transform="scale(0.1,0.1)"><path
         d="M 2814.72,1424.32 1397.04,2813.2 8.16016,1396.24 1397.04,6.64063 2814.72,1424.32"
         style="fill:#231f20;fill-opacity:1;fill-rule:evenodd;stroke:none"
         id="path14"
         inkscape:connector-curvature="0" /><path
         d="M 2814.72,1424.32 1397.04,2813.2 8.16016,1396.24 1397.04,6.64063 2814.72,1424.32 Z"
         style="fill:none;stroke:#231f20;stroke-width:2.16000009;stroke-linecap:butt;stroke-linejoin:miter;stroke-miterlimit:2.61310005;stroke-dasharray:none;stroke-opacity:1"
         id="path16"
         inkscape:connector-curvature="0" /><path
         d="m 2672.88,1424.32 84.96,0 -1360.8,-1360.8005 0,84.9605 1275.84,1275.84"
         style="fill:#326152;fill-opacity:1;fill-rule:evenodd;stroke:none"
         id="path18"
         inkscape:connector-curvature="0" /><path
         d="m 2672.88,1424.32 84.96,0 -1360.8,-1360.8005 0,84.9605 1275.84,1275.84 z"
         style="fill:none;stroke:#231f20;stroke-width:2.16000009;stroke-linecap:butt;stroke-linejoin:miter;stroke-miterlimit:2.61310005;stroke-dasharray:none;stroke-opacity:1"
         id="path20"
         inkscape:connector-curvature="0" /><path
         d="m 65.0391,1396.24 84.9609,0 1247.04,-1247.76 0,-84.9605 L 65.0391,1396.24"
         style="fill:#396e5c;fill-opacity:1;fill-rule:evenodd;stroke:none"
         id="path22"
         inkscape:connector-curvature="0" /><path
         d="m 65.0391,1396.24 84.9609,0 1247.04,-1247.76 0,-84.9605 L 65.0391,1396.24 Z"
         style="fill:none;stroke:#231f20;stroke-width:2.16000009;stroke-linecap:butt;stroke-linejoin:miter;stroke-miterlimit:2.61310005;stroke-dasharray:none;stroke-opacity:1"
         id="path24"
         inkscape:connector-curvature="0" /><path
         d="m 1397.04,2672.08 0,84.24 -1332.0009,-1360.08 84.9609,0 1247.04,1275.84"
         style="fill:#66caa6;fill-opacity:1;fill-rule:evenodd;stroke:none"
         id="path26"
         inkscape:connector-curvature="0" /><path
         d="m 1397.04,2672.08 0,84.24 -1332.0009,-1360.08 84.9609,0 1247.04,1275.84 z"
         style="fill:none;stroke:#231f20;stroke-width:2.16000009;stroke-linecap:butt;stroke-linejoin:miter;stroke-miterlimit:2.61310005;stroke-dasharray:none;stroke-opacity:1"
         id="path28"
         inkscape:connector-curvature="0" /><path
         d="m 1397.04,2756.32 0,-84.24 1275.84,-1247.76 84.96,0 -1360.8,1332"
         style="fill:#45bb3c;fill-opacity:1;fill-rule:evenodd;stroke:none"
         id="path30"
         inkscape:connector-curvature="0" /><path
         d="m 1397.04,2756.32 0,-84.24 1275.84,-1247.76 84.96,0 -1360.8,1332 z"
         style="fill:none;stroke:#231f20;stroke-width:2.16000009;stroke-linecap:butt;stroke-linejoin:miter;stroke-miterlimit:2.61310005;stroke-dasharray:none;stroke-opacity:1"
         id="path32"
         inkscape:connector-curvature="0" /><path
         d="M 1397.04,148.48 2672.88,1424.32 1397.04,2672.08 150,1396.24 1397.04,148.48"
         style="fill:#42826c;fill-opacity:1;fill-rule:evenodd;stroke:none"
         id="path34"
         inkscape:connector-curvature="0" /><path
         d="M 1397.04,148.48 2672.88,1424.32 1397.04,2672.08 150,1396.24 1397.04,148.48 Z"
         style="fill:none;stroke:#231f20;stroke-width:2.16000009;stroke-linecap:butt;stroke-linejoin:miter;stroke-miterlimit:2.61310005;stroke-dasharray:none;stroke-opacity:1"
         id="path36"
         inkscape:connector-curvature="0" /><path
         d="m 1662,2388.4 84.96,-85.68 0,0 -586.08,-594.72 0,594.72 56.88,0 84.96,85.68 0,226.08 -84.96,85.68 -944.639,0 -84.961,-85.68 0,-226.08 84.961,-85.68 66.238,0 0,-1927.439 103.68,-84.961 293.043,0 2031.118,2098.08 0,226.08 -84.96,85.68 -925.92,0 -94.32,-85.68 0,-226.08"
         style="fill:#231f20;fill-opacity:1;fill-rule:evenodd;stroke:none"
         id="path38"
         inkscape:connector-curvature="0" /><path
         d="m 1662,2388.4 84.96,-85.68 0,0 -586.08,-594.72 0,594.72 56.88,0 84.96,85.68 0,226.08 -84.96,85.68 -944.639,0 -84.961,-85.68 0,-226.08 84.961,-85.68 66.238,0 0,-1927.439 103.68,-84.961 293.043,0 2031.118,2098.08 0,226.08 -84.96,85.68 -925.92,0 -94.32,-85.68 0,-226.08 z"
         style="fill:none;stroke:#231f20;stroke-width:2.16000009;stroke-linecap:butt;stroke-linejoin:miter;stroke-miterlimit:2.61310005;stroke-dasharray:none;stroke-opacity:1"
         id="path40"
         inkscape:connector-curvature="0" /><path
         d="m 301.199,2359.6 -56.879,56.88 0,169.92 56.879,56.88 888.481,0.72 56.16,-57.6 -56.16,-27.36 -28.8,27.36 -859.681,-141.12 0,-85.68"
         style="fill:#ffffff;fill-opacity:1;fill-rule:evenodd;stroke:none"
         id="path42"
         inkscape:connector-curvature="0" /><path
         d="m 301.199,2359.6 -56.879,56.88 0,169.92 56.879,56.88 888.481,0.72 56.16,-57.6 -56.16,-27.36 -28.8,27.36 -859.681,-141.12 0,-85.68 z"
         style="fill:none;stroke:#231f20;stroke-width:2.16000009;stroke-linecap:butt;stroke-linejoin:miter;stroke-miterlimit:2.61310005;stroke-dasharray:none;stroke-opacity:1"
         id="path44"
         inkscape:connector-curvature="0" /><path
         d="m 471.121,347.199 -66.242,56.879 0,1956.242 66.242,56.16 0,-2069.281"
         style="fill:#ffffff;fill-opacity:1;fill-rule:evenodd;stroke:none"
         id="path46"
         inkscape:connector-curvature="0" /><path
         d="m 471.121,347.199 -66.242,56.879 0,1956.242 66.242,56.16 0,-2069.281 z"
         style="fill:none;stroke:#231f20;stroke-width:2.16000009;stroke-linecap:butt;stroke-linejoin:miter;stroke-miterlimit:2.61310005;stroke-dasharray:none;stroke-opacity:1"
         id="path48"
         inkscape:connector-curvature="0" /><path
         d="m 1888.8,2359.6 56.88,56.88 0,-113.76 -945.36,-963.36 104.4,226.8 784.08,793.44"
         style="fill:#ffffff;fill-opacity:1;fill-rule:evenodd;stroke:none"
         id="path50"
         inkscape:connector-curvature="0" /><path
         d="m 1888.8,2359.6 56.88,56.88 0,-113.76 -945.36,-963.36 104.4,226.8 784.08,793.44 z"
         style="fill:none;stroke:#231f20;stroke-width:2.16000009;stroke-linecap:butt;stroke-linejoin:miter;stroke-miterlimit:2.61310005;stroke-dasharray:none;stroke-opacity:1"
         id="path52"
         inkscape:connector-curvature="0" /><path
         d="m 490.559,2444.56 -19.438,-28.08 -66.242,-56.88 -103.68,0 0,113.76 189.36,-28.8"
         style="fill:#918f90;fill-opacity:1;fill-rule:evenodd;stroke:none"
         id="path54"
         inkscape:connector-curvature="0" /><path
         d="m 490.559,2444.56 -19.438,-28.08 -66.242,-56.88 -103.68,0 0,113.76 189.36,-28.8 z"
         style="fill:none;stroke:#231f20;stroke-width:2.16000009;stroke-linecap:butt;stroke-linejoin:miter;stroke-miterlimit:2.61310005;stroke-dasharray:none;stroke-opacity:1"
         id="path56"
         inkscape:connector-curvature="0" /><path
         d="m 1104.72,2359.6 0,-793.44 -104.4,-226.08 0,1077.12 160.56,0 28.8,28.08 -28.8,141.12 84.96,0 0,-169.92 -56.16,-56.88 -84.96,0"
         style="fill:#918f90;fill-opacity:1;fill-rule:evenodd;stroke:none"
         id="path58"
         inkscape:connector-curvature="0" /><path
         d="m 1104.72,2359.6 0,-793.44 -104.4,-226.08 0,1077.12 160.56,0 28.8,28.08 -28.8,141.12 84.96,0 0,-169.92 -56.16,-56.88 -84.96,0 z"
         style="fill:none;stroke:#231f20;stroke-width:2.16000009;stroke-linecap:butt;stroke-linejoin:miter;stroke-miterlimit:2.61310005;stroke-dasharray:none;stroke-opacity:1"
         id="path60"
         inkscape:connector-curvature="0" /><path
         d="m 1775.04,2359.6 -56.16,56.88 0,169.92 65.52,56.88 860.4,0 66.24,-56.88 -95.04,-84.96 -840.96,-56.16 0,-85.68"
         style="fill:#ffffff;fill-opacity:1;fill-rule:evenodd;stroke:none"
         id="path62"
         inkscape:connector-curvature="0" /><path
         d="m 1775.04,2359.6 -56.16,56.88 0,169.92 65.52,56.88 860.4,0 66.24,-56.88 -95.04,-84.96 -840.96,-56.16 0,-85.68 z"
         style="fill:none;stroke:#231f20;stroke-width:2.16000009;stroke-linecap:butt;stroke-linejoin:miter;stroke-miterlimit:2.61310005;stroke-dasharray:none;stroke-opacity:1"
         id="path64"
         inkscape:connector-curvature="0" /><path
         d="M 2711.04,2416.48 716.641,347.199 l -245.52,0 0,84.961 180,0 1993.679,2041.2 -28.8,113.04 95.04,0 0,-169.92"
         style="fill:#918f90;fill-opacity:1;fill-rule:evenodd;stroke:none"
         id="path66"
         inkscape:connector-curvature="0" /><path
         d="M 2711.04,2416.48 716.641,347.199 l -245.52,0 0,84.961 180,0 1993.679,2041.2 -28.8,113.04 95.04,0 0,-169.92 z"
         style="fill:none;stroke:#231f20;stroke-width:2.16000009;stroke-linecap:butt;stroke-linejoin:miter;stroke-miterlimit:2.61310005;stroke-dasharray:none;stroke-opacity:1"
         id="path68"
         inkscape:connector-curvature="0" /><path
         d="m 1964.4,2444.56 -19.44,-28.08 -56.16,-56.88 -113.76,0 0,113.76 189.36,-28.8"
         style="fill:#918f90;fill-opacity:1;fill-rule:evenodd;stroke:none"
         id="path70"
         inkscape:connector-curvature="0" /><path
         d="m 1964.4,2444.56 -19.44,-28.08 -56.16,-56.88 -113.76,0 0,113.76 189.36,-28.8 z"
         style="fill:none;stroke:#231f20;stroke-width:2.16000009;stroke-linecap:butt;stroke-linejoin:miter;stroke-miterlimit:2.61310005;stroke-dasharray:none;stroke-opacity:1"
         id="path72"
         inkscape:connector-curvature="0" /><path
         d="m 1000.32,1340.08 0,1077.12 160.56,0 28.8,28.08 0,113.76 -28.8,28.08 -831.599,0 -28.082,-28.08 0,-113.76 28.082,-28.08 141.84,0 0,-1985.04 36.719,-28.082 162,0 1984.32,2069.282 0,81.36 -28.8,32.4 -821.52,0 -28.8,-28.08 0,-114.48 28.8,-28.08 141.84,0 0,-113.76 -945.36,-962.64"
         style="fill:#d3d2d2;fill-opacity:1;fill-rule:evenodd;stroke:none"
         id="path74"
         inkscape:connector-curvature="0" /><path
         d="m 1000.32,1340.08 0,1077.12 160.56,0 28.8,28.08 0,113.76 -28.8,28.08 -831.599,0 -28.082,-28.08 0,-113.76 28.082,-28.08 141.84,0 0,-1985.04 36.719,-28.082 162,0 1984.32,2069.282 0,81.36 -28.8,32.4 -821.52,0 -28.8,-28.08 0,-114.48 28.8,-28.08 141.84,0 0,-113.76 -945.36,-962.64 z"
         style="fill:none;stroke:#231f20;stroke-width:2.16000009;stroke-linecap:butt;stroke-linejoin:miter;stroke-miterlimit:2.61310005;stroke-dasharray:none;stroke-opacity:1"
         id="path76"
         inkscape:connector-curvature="0" /><path
         d="m 1515.84,1338.64 66.24,56.88 169.92,0 47.52,-56.88 -56.88,-169.92 -65.52,-56.88 -169.92,0 -48.24,56.88 56.88,169.92"
         style="fill:#231f20;fill-opacity:1;fill-rule:evenodd;stroke:none"
         id="path78"
         inkscape:connector-curvature="0" /><path
         d="m 1515.84,1338.64 66.24,56.88 169.92,0 47.52,-56.88 -56.88,-169.92 -65.52,-56.88 -169.92,0 -48.24,56.88 56.88,169.92 z"
         style="fill:none;stroke:#231f20;stroke-width:2.16000009;stroke-linecap:butt;stroke-linejoin:miter;stroke-miterlimit:2.61310005;stroke-dasharray:none;stroke-opacity:1"
         id="path80"
         inkscape:connector-curvature="0" /><path
         d="m 1572.72,403.359 170.64,509.762 -56.88,0 56.88,170.639 254.16,0 56.88,-56.88 38.16,0 56.16,56.88 189.36,0 56.88,-56.88 37.44,0 56.88,56.88 207.36,0 75.6,-113.76 -123.84,-403.199 56.16,0 -54.72,-163.442 -340.56,0 133.2,396.719 -84.96,0 -78.48,-231.84 56.16,0 -53.28,-164.879 -340.56,0 132.48,396.719 -84.96,0 -79.2,-233.277 56.88,0 -53.28,-163.442 -340.56,0"
         style="fill:#231f20;fill-opacity:1;fill-rule:evenodd;stroke:none"
         id="path82"
         inkscape:connector-curvature="0" /><path
         d="m 1572.72,403.359 170.64,509.762 -56.88,0 56.88,170.639 254.16,0 56.88,-56.88 38.16,0 56.16,56.88 189.36,0 56.88,-56.88 37.44,0 56.88,56.88 207.36,0 75.6,-113.76 -123.84,-403.199 56.16,0 -54.72,-163.442 -340.56,0 133.2,396.719 -84.96,0 -78.48,-231.84 56.16,0 -53.28,-164.879 -340.56,0 132.48,396.719 -84.96,0 -79.2,-233.277 56.88,0 -53.28,-163.442 -340.56,0 z"
         style="fill:none;stroke:#231f20;stroke-width:2.16000009;stroke-linecap:butt;stroke-linejoin:miter;stroke-miterlimit:2.61310005;stroke-dasharray:none;stroke-opacity:1"
         id="path84"
         inkscape:connector-curvature="0" /><path
         d="m 2670.72,1026.88 43.92,-62.642 -139.68,-447.84 56.16,0 -18.72,-56.16 -226.8,0 132.48,396.723 -198.72,0 -113.04,-340.563 56.16,0 -18.72,-56.16 -226.8,0 132.48,396.723 -198.72,0 -113.04,-340.563 56.88,0 -19.44,-56.16 -226.8,0 170.64,509.762 -56.88,0 18.72,56.88 208.08,0 56.88,-56.88 56.16,0 56.88,56.88 169.92,0 56.88,-56.88 56.88,0 56.88,56.88 171.36,0"
         style="fill:#d3d2d2;fill-opacity:1;fill-rule:evenodd;stroke:none"
         id="path86"
         inkscape:connector-curvature="0" /><path
         d="m 2670.72,1026.88 43.92,-62.642 -139.68,-447.84 56.16,0 -18.72,-56.16 -226.8,0 132.48,396.723 -198.72,0 -113.04,-340.563 56.16,0 -18.72,-56.16 -226.8,0 132.48,396.723 -198.72,0 -113.04,-340.563 56.88,0 -19.44,-56.16 -226.8,0 170.64,509.762 -56.88,0 18.72,56.88 208.08,0 56.88,-56.88 56.16,0 56.88,56.88 169.92,0 56.88,-56.88 56.88,0 56.88,56.88 171.36,0 z"
         style="fill:none;stroke:#231f20;stroke-width:2.16000009;stroke-linecap:butt;stroke-linejoin:miter;stroke-miterlimit:2.61310005;stroke-dasharray:none;stroke-opacity:1"
         id="path88"
         inkscape:connector-curvature="0" /><path
         d="m 1714.56,1083.76 -173.52,-516.24 59.04,0 -56.16,-164.161 -339.84,0 169.92,509.762 -56.88,0 397.44,170.639 z m -397.44,-170.639 56.88,170.639 340.56,0"
         style="fill:#231f20;fill-opacity:1;fill-rule:evenodd;stroke:none"
         id="path90"
         inkscape:connector-curvature="0" /><path
         d="m 1714.56,1083.76 -173.52,-516.24 59.04,0 -56.16,-164.161 -339.84,0 169.92,509.762 -56.88,0 397.44,170.639 z m -397.44,-170.639 56.88,170.639 340.56,0 -397.44,-170.639 z"
         style="fill:none;stroke:#231f20;stroke-width:2.16000009;stroke-linecap:butt;stroke-linejoin:miter;stroke-miterlimit:2.61310005;stroke-dasharray:none;stroke-opacity:1"
         id="path92"
         inkscape:connector-curvature="0" /><path
         d="m 1506.48,460.238 18.72,56.16 -56.88,0 170.64,510.482 -236.16,0 -19.44,-56.88 66.24,0 -169.92,-509.762 226.8,0"
         style="fill:#d3d2d2;fill-opacity:1;fill-rule:evenodd;stroke:none"
         id="path94"
         inkscape:connector-curvature="0" /><path
         d="m 1506.48,460.238 18.72,56.16 -56.88,0 170.64,510.482 -236.16,0 -19.44,-56.88 66.24,0 -169.92,-509.762 226.8,0 z"
         style="fill:none;stroke:#231f20;stroke-width:2.16000009;stroke-linecap:butt;stroke-linejoin:miter;stroke-miterlimit:2.61310005;stroke-dasharray:none;stroke-opacity:1"
         id="path96"
         inkscape:connector-curvature="0" /><path
         d="m 1695.12,1196.8 38.16,113.76 -18.72,28.08 -113.76,0 -37.44,-28.08 -38.16,-113.76 19.44,-28.08 113.76,0 36.72,28.08"
         style="fill:#d3d2d2;fill-opacity:1;fill-rule:evenodd;stroke:none"
         id="path98"
         inkscape:connector-curvature="0" /><path
         d="m 1695.12,1196.8 38.16,113.76 -18.72,28.08 -113.76,0 -37.44,-28.08 -38.16,-113.76 19.44,-28.08 113.76,0 36.72,28.08 z"
         style="fill:none;stroke:#231f20;stroke-width:2.16000009;stroke-linecap:butt;stroke-linejoin:miter;stroke-miterlimit:2.61310005;stroke-dasharray:none;stroke-opacity:1"
         id="path100"
         inkscape:connector-curvature="0" /></g></g></svg>